<?xml version="1.0" encoding="iso-8859-1"?>
<!-- Generator: Adobe Illustrator 18.1.1, SVG Export Plug-In . SVG Version: 6.00 Build 0)  -->
<svg version="1.1" id="Capa_1" xmlns="http://www.w3.org/2000/svg" xmlns:xlink="http://www.w3.org/1999/xlink" x="0px" y="0px"
	 viewBox="0 0 495.502 495.502" style="enable-background:new 0 0 495.502 495.502;" xml:space="preserve">
<g>
	<g>
		<path style="fill:#010002;" d="M204.58,495.502c87.862,0,193.55-30.376,209.961-113.759c0.504-1.496,0.943-3.308,1.276-5.584
			c7.885-53.77,26.572-71.54,26.572-71.54l-0.024-0.024c27.442-23.695,46.772-80.384,46.772-138.552
			c0-50.178-29.45-105.696-71.629-134.26C394.911,12.038,365.461,0,333.15,0c-45.325,0-85.106,23.589-108.029,59.144l-0.073-0.057
			c0,0-29.304,45.073-90.138,60.241c-2.609,0.65-4.617,1.374-6.145,2.162c-71.166,24.451-122.4,92.024-122.4,171.765
			c0,49.446,19.696,94.251,51.608,127.009C90.853,465.832,144.25,495.502,204.58,495.502z M44.114,229.99
			c17.273-39.342,50.243-70.889,92.576-85.439l1.268-0.39l1.536-0.788c0,0,0.398-0.154,1.317-0.382
			c41.935-10.453,70.922-33.295,87.594-50.194l1.861,1.471l0.813,0.642l3.406-5.284l11.136-17.273
			c11.177-17.338,26.889-30.474,44.927-38.627c13.209-5.966,27.621-9.348,42.61-9.348c57.51,0,104.298,47.024,104.298,104.826
			c0,30.498-13.274,59.461-36.424,79.457l-19.297,16.72l1.536,1.618c-15.103,18.2-35.042,49.414-41.366,92.536
			c-0.13,0.894-0.244,1.284-0.244,1.284l0,0l-0.52,1.536l-0.317,1.593c-14.436,73.352-79.002,126.594-153.524,126.594
			c-86.325,0-156.556-70.556-156.556-157.288C30.75,270.958,35.53,249.531,44.114,229.99z"/>
		<path style="fill:#010002;" d="M197.524,355.284c53.868,0,97.543-43.675,97.543-97.543s-43.675-97.543-97.543-97.543
			s-97.543,43.675-97.543,97.543S143.656,355.284,197.524,355.284z M212.009,195.322c15.794,3.69,32.23,11.754,40.529,26.434
			c8.234,14.558,8.494,30.328,5.365,46.398c-3.999,20.573-35.335,11.835-31.352-8.641c3.699-19.013-5.17-28.629-23.191-32.839
			C182.95,221.91,191.607,190.558,212.009,195.322z"/>
	</g>
</g>
<g>
</g>
<g>
</g>
<g>
</g>
<g>
</g>
<g>
</g>
<g>
</g>
<g>
</g>
<g>
</g>
<g>
</g>
<g>
</g>
<g>
</g>
<g>
</g>
<g>
</g>
<g>
</g>
<g>
</g>
</svg>
